# xmcd
#
# Track frame offsets:
# 150
# 15812
# 27376
# 37501
# 51253
# 62490
# 80106
# 95278
# 112108
# 131099
# 141214
# 155501
# 165879
# 180594
#
# Disc length: 2643 seconds
#
#
# Revision: 0
# Processed by: cddbd v1.5.2PL0 Copyright (c) Steve Scherf et al.
# Submitted via: FreeRIP 2.941 
#
DISCID=a70a510e
DTITLE=Ollie Austin and Eileen King - Silent Partners
DYEAR=1900
DGENRE=Country
TTITLE0=That Certain Someone
TTITLE1=Juke Box Serenade
TTITLE2=I Don't Believe You Met My Baby
TTITLE3=Silent Partners
TTITLE4=Walk On By
TTITLE5=My Elusive Dreams
TTITLE6=Waltz Across Essex
TTITLE7=Send a Mesage To My Heart
TTITLE8=Don't Close Your Eyes
TTITLE9=Slowly But Surely
TTITLE10=Your The Reason God Made Oklahoma
TTITLE11=Lying In Love With You
TTITLE12=Jackson
TTITLE13=Storms Never Last
EXTD=
EXTT0=
EXTT1=
EXTT2=
EXTT3=
EXTT4=
EXTT5=
EXTT6=
EXTT7=
EXTT8=
EXTT9=
EXTT10=
EXTT11=
EXTT12=
EXTT13=
PLAYORDER=
